<svg width="256" height="256" viewBox="0 0 256 256" fill="none" xmlns="http://www.w3.org/2000/svg">
<g clip-path="url(#clip0_4113_4296)">
<path d="M0 80C0 42.2876 0 23.4315 11.7157 11.7157C23.4315 0 42.2876 0 80 0H176C213.712 0 232.569 0 244.284 11.7157C256 23.4315 256 42.2876 256 80V176C256 213.712 256 232.569 244.284 244.284C232.569 256 213.712 256 176 256H80C42.2876 256 23.4315 256 11.7157 244.284C0 232.569 0 213.712 0 176V80Z" fill="url(#paint0_linear_4113_4296)"/>
<g filter="url(#filter0_f_4113_4296)">
<path d="M166.89 65.5507C155.378 57.3677 141.844 53 128 53H127.969C108.573 53.0777 89.9565 61.1296 76.0114 75.4718C75.9788 75.5054 75.9461 75.5392 75.914 75.5733L74.1151 77.4872V61.5723C74.1151 56.8379 70.5076 53 66.0575 53C61.6075 53 58 56.8379 58 61.5723V98.1833C58.0002 102.917 61.6076 106.756 66.0575 106.756H100.47C104.92 106.755 108.528 102.917 108.528 98.1833C108.528 93.4491 104.92 89.6112 100.47 89.611H85.509L87.2548 87.7537C98.2018 76.5176 112.803 70.2094 128.016 70.1445C138.667 70.1478 149.079 73.5101 157.936 79.8061C166.797 86.1053 173.705 95.0582 177.783 105.533C181.861 116.008 182.928 127.535 180.849 138.656L196.655 142C199.356 127.554 197.97 112.58 192.671 98.9723C187.373 85.3645 178.401 73.7338 166.89 65.5507Z" fill="url(#paint1_linear_4113_4296)" fill-opacity="0.1"/>
</g>
<g filter="url(#filter1_f_4113_4296)">
<path d="M166.89 70.7046C155.378 63.0733 141.844 59 128 59H127.969C108.573 59.0724 89.9565 66.5815 76.0114 79.9569C75.9788 79.9882 75.9461 80.0197 75.914 80.0515L74.1151 81.8364V66.9944C74.1151 62.5792 70.5076 59 66.0575 59C61.6075 59 58 62.5792 58 66.9944V101.137C58.0002 105.552 61.6076 109.132 66.0575 109.132H100.47C104.92 109.131 108.528 105.552 108.528 101.137C108.528 96.7222 104.92 93.1431 100.47 93.1429H85.509L87.2548 91.4107C98.2018 80.9321 112.803 75.0492 128.016 74.9887C138.667 74.9918 149.079 78.1274 157.936 83.999C166.797 89.8735 173.705 98.2228 177.783 107.992C181.861 117.761 182.928 128.51 180.849 138.881L196.655 142C199.356 128.528 197.97 114.563 192.671 101.873C187.373 89.1826 178.401 78.336 166.89 70.7046Z" fill="url(#paint2_linear_4113_4296)" fill-opacity="0.45"/>
</g>
<path d="M128 59.5C141.548 59.5 154.792 63.5172 166.057 71.0439C177.321 78.5708 186.101 89.2695 191.286 101.786C196.471 114.303 197.827 128.076 195.184 141.363C192.541 154.651 186.016 166.857 176.436 176.437C166.856 186.016 154.651 192.541 141.363 195.185C128.076 197.827 114.303 196.471 101.786 191.286C89.2694 186.102 78.5717 177.321 71.0448 166.057C63.5179 154.792 59.4999 141.548 59.4999 128C59.4999 124.134 62.6339 121 66.4999 121C70.3659 121 73.4999 124.134 73.4999 128C73.4999 138.779 76.697 149.316 82.6854 158.278C88.6739 167.241 97.185 174.227 107.143 178.352C117.102 182.477 128.061 183.555 138.633 181.452C149.204 179.349 158.915 174.159 166.537 166.537C174.159 158.915 179.349 149.205 181.452 138.633C183.555 128.061 182.476 117.102 178.351 107.144C174.226 97.1851 167.241 88.674 158.278 82.6855C149.6 76.8871 139.446 73.7058 129.025 73.5098L128.016 73.5H128.012C112.65 73.5616 97.9057 79.549 86.8514 90.2139L85.1053 91.96C84.8194 92.246 84.7338 92.6762 84.8885 93.0498C85.0433 93.4234 85.408 93.6669 85.8124 93.667H100.667C104.533 93.6671 107.667 96.8011 107.667 100.667L107.658 101.027C107.47 104.726 104.412 107.667 100.667 107.667H66.4999C62.6341 107.667 59.5001 104.533 59.4999 100.667V66.5C59.4999 62.634 62.6339 59.5001 66.4999 59.5C70.3659 59.5 73.4999 62.634 73.4999 66.5V81.3525C73.4999 81.7569 73.7435 82.1215 74.1171 82.2764C74.4907 82.4311 74.9209 82.3455 75.2069 82.0596L76.993 80.2734C77.0188 80.2477 77.0467 80.2207 77.078 80.1904C90.5246 67.1913 108.406 59.8046 127.084 59.5088L127.974 59.5H128Z" fill="url(#paint3_linear_4113_4296)" stroke="white" stroke-width="2" stroke-linecap="round" stroke-linejoin="round"/>
<path d="M128 86.8333C131.866 86.8333 135 89.9674 135 93.8333V123.055C135 123.434 135.214 123.78 135.553 123.95L158.464 135.406C161.922 137.134 163.323 141.339 161.594 144.797C159.865 148.255 155.661 149.656 152.203 147.927L124.869 134.261C122.498 133.075 121 130.652 121 128V93.8333C121 89.9674 124.134 86.8333 128 86.8333Z" fill="url(#paint4_linear_4113_4296)" stroke="white" stroke-width="2" stroke-linecap="round" stroke-linejoin="round"/>
</g>
<defs>
<filter id="filter0_f_4113_4296" x="54" y="49" width="148" height="97" filterUnits="userSpaceOnUse" color-interpolation-filters="sRGB">
<feFlood flood-opacity="0" result="BackgroundImageFix"/>
<feBlend mode="normal" in="SourceGraphic" in2="BackgroundImageFix" result="shape"/>
<feGaussianBlur stdDeviation="2" result="effect1_foregroundBlur_4113_4296"/>
</filter>
<filter id="filter1_f_4113_4296" x="54" y="55" width="148" height="91" filterUnits="userSpaceOnUse" color-interpolation-filters="sRGB">
<feFlood flood-opacity="0" result="BackgroundImageFix"/>
<feBlend mode="normal" in="SourceGraphic" in2="BackgroundImageFix" result="shape"/>
<feGaussianBlur stdDeviation="2" result="effect1_foregroundBlur_4113_4296"/>
</filter>
<linearGradient id="paint0_linear_4113_4296" x1="133" y1="0" x2="133" y2="256" gradientUnits="userSpaceOnUse">
<stop stop-color="#2A3540"/>
<stop offset="1" stop-color="#181E24"/>
</linearGradient>
<linearGradient id="paint1_linear_4113_4296" x1="128" y1="53" x2="128" y2="144.08" gradientUnits="userSpaceOnUse">
<stop stop-color="white"/>
<stop offset="1" stop-color="white" stop-opacity="0"/>
</linearGradient>
<linearGradient id="paint2_linear_4113_4296" x1="128" y1="59" x2="128" y2="143.94" gradientUnits="userSpaceOnUse">
<stop stop-color="white"/>
<stop offset="1" stop-color="white" stop-opacity="0"/>
</linearGradient>
<linearGradient id="paint3_linear_4113_4296" x1="128" y1="58.5" x2="128" y2="197.5" gradientUnits="userSpaceOnUse">
<stop stop-color="white"/>
<stop offset="1" stop-color="#E4E5E6"/>
</linearGradient>
<linearGradient id="paint4_linear_4113_4296" x1="141.667" y1="85.8333" x2="141.667" y2="149.668" gradientUnits="userSpaceOnUse">
<stop stop-color="white" stop-opacity="0.99"/>
<stop offset="1" stop-color="white" stop-opacity="0.95"/>
</linearGradient>
<clipPath id="clip0_4113_4296">
<rect width="256" height="256" fill="white"/>
</clipPath>
</defs>
</svg>
