<svg width="256" height="256" viewBox="0 0 256 256" fill="currentColor" xmlns="http://www.w3.org/2000/svg">
    <ellipse cx="128" cy="56" rx="80" ry="24"/>
    <path d="M48 56 v40 c0 13.3 35.8 24 80 24 s80 -10.7 80 -24 V56 c0 13.3 -35.8 24 -80 24 s-80 -10.7 -80 -24 z"/>
    <path d="M48 120 v40 c0 13.3 35.8 24 80 24 s80 -10.7 80 -24 V120 c0 13.3 -35.8 24 -80 24 s-80 -10.7 -80 -24 z"/>
    <path d="M48 184 v16 c0 13.3 35.8 24 80 24 s80 -10.7 80 -24 V184 c0 13.3 -35.8 24 -80 24 s-80 -10.7 -80 -24 z"/>
</svg>
